<?xml version="1.0" encoding="UTF-8" standalone="no"?>
<!DOCTYPE svg PUBLIC "-//W3C//DTD SVG 1.1//EN" "http://www.w3.org/Graphics/SVG/1.1/DTD/svg11-flat.dtd"
[
<!ATTLIST g xmlns:fme CDATA #FIXED "http://www.safe.com/fme" >
<!ATTLIST path fme:R2_NAME CDATA #IMPLIED fme:R2_BFSNR CDATA #IMPLIED fme:Area CDATA #IMPLIED >
<!ATTLIST ellipse fme:R2_NAME CDATA #IMPLIED fme:R2_BFSNR CDATA #IMPLIED fme:Area CDATA #IMPLIED >
<!ATTLIST text fme:R2_NAME CDATA #IMPLIED fme:R2_BFSNR CDATA #IMPLIED fme:Area CDATA #IMPLIED >
<!ATTLIST use fme:R2_NAME CDATA #IMPLIED fme:R2_BFSNR CDATA #IMPLIED fme:Area CDATA #IMPLIED >
]>
<svg xmlns="http://www.w3.org/2000/svg"  viewBox="-130.727 -130.727 10719.6 9356.1"><g xmlns:fme="http://www.safe.com/fme" fill="none" stroke="black" stroke-width="1.30727112499997" transform="translate(0,9094.65) scale(1, -1)">
<g id="Gemeinden" >
<path fme:R2_NAME="Basel" fme:R2_BFSNR="2701" fme:Area="23855312.8472756" d="M 5305.71,6628.63 l 68.329,-84.214 68.331,-84.217 -272.891,-221.39 -194.208,-217.417 46.909,-158.878 41.736,-141.356 54.544,-120.181 49.743,-70.598 0.262,-0.366 0.267,-0.361 0.272,-0.358 0.278,-0.353 0.283,-0.349 0.289,-0.345 0.293,-0.341 0.299,-0.336 0.303,-0.332 0.309,-0.327 0.313,-0.322 0.318,-0.318 0.323,-0.312 0.328,-0.308 0.332,-0.303 0.336,-0.298 0.341,-0.293 0.346,-0.288 0.349,-0.283 0.354,-0.277 0.358,-0.272 0.362,-0.267 0.366,-0.261 0.37,-0.255 0.374,-0.25 0.377,-0.245 0.381,-0.239 0.384,-0.233 0.388,-0.227 0.392,-0.221 0.394,-0.216 0.398,-0.209 0.401,-0.204 0.404,-0.197 0.406,-0.192 0.41,-0.185 0.412,-0.179 0.415,-0.173 0.418,-0.167 0.42,-0.161 0.422,-0.154 0.424,-0.148 0.427,-0.141 0.429,-0.135 0.431,-0.129 0.432,-0.122 0.435,-0.116 0.436,-0.109 0.438,-0.102 0.439,-0.096 0.441,-0.09 0.441,-0.083 0.443,-0.076 0.445,-0.069 0.445,-0.063 0.446,-0.056 0.447,-0.05 0.447,-0.042 0.448,-0.037 0.449,-0.029 0.449,-0.023 0.449,-0.015 0.45,-0.01 0.449,-0.002 0.45,0.004 0.449,0.011 0.449,0.018 0.449,0.025 0.449,0.031 0.448,0.038 0.447,0.044 0.447,0.052 0.446,0.058 0.445,0.065 0.443,0.071 0.443,0.078 0.442,0.085 0.44,0.091 0.439,0.098 0.437,0.104 0.436,0.111 0.434,0.118 0.432,0.123 0.43,0.131 0.428,0.137 0.426,0.143 0.424,0.15 0.422,0.156 0.419,0.162 0.417,0.168 0.414,0.175 0.412,0.181 0.409,0.187 0.406,0.193 0.403,0.199 0.4,0.206 0.396,0.211 0.394,0.217 0.39,0.223 0.387,0.229 0.384,0.235 0.38,0.24 0.376,0.246 0.373,0.252 0.368,0.257 0.365,0.262 0.361,0.268 0.357,0.274 0.353,0.279 0.348,0.284 0.344,0.289 0.34,0.294 0.335,0.3 0.331,0.304 0.326,0.31 0.322,0.314 0.317,0.319 0.312,0.323 0.307,0.329 0.302,0.333 0.297,0.337 0.292,0.342 0.287,0.346 0.282,0.35 0.276,0.355 0.271,0.359 0.266,0.362 0.26,0.367 72.849,104.317 57.362,-81.411 -17.358,-12.231 14.976,-21.254 172.447,-244.741 20.146,-28.592 82.31,57.054 44.359,31.608 37.096,27.592 39.496,30.073 29.343,22.995 211.36,-266.554 -31.418,-122.468 -54.411,-212.096 -29.415,-114.659 -81.152,15.556 -98.707,6.188 -107.608,-3.009 -106.404,-18.6 -110.483,-41.5 -113.528,-43.907 -133.311,-61.311 -251.324,-122.012 -124.009,-51.904 0.444,-2.627 0.437,-2.627 0.432,-2.629 0.426,-2.629 0.421,-2.631 0.414,-2.631 0.409,-2.633 0.402,-2.633 0.397,-2.634 0.391,-2.635 0.386,-2.636 0.379,-2.636 0.373,-2.638 0.368,-2.638 0.362,-2.639 0.356,-2.64 0.35,-2.641 0.344,-2.642 0.338,-2.642 0.333,-2.643 0.326,-2.644 0.321,-2.644 0.315,-2.645 0.309,-2.646 0.303,-2.647 0.297,-2.647 0.291,-2.648 0.286,-2.648 0.28,-2.649 0.273,-2.65 0.268,-2.65 0.262,-2.651 0.256,-2.652 0.25,-2.652 0.245,-2.652 0.238,-2.654 0.232,-2.653 0.227,-2.654 0.221,-2.655 0.215,-2.655 0.209,-2.656 0.203,-2.656 0.197,-2.656 0.191,-2.657 0.185,-2.658 0.18,-2.658 0.173,-2.658 0.168,-2.658 0.162,-2.659 0.155,-2.66 0.15,-2.659 0.144,-2.66 0.139,-2.66 0.132,-2.661 0.126,-2.661 0.12,-2.661 0.115,-2.661 0.109,-2.662 0.102,-2.662 0.097,-2.662 0.091,-2.662 0.085,-2.663 0.079,-2.662 0.073,-2.663 0.103,-3.878 0.087,-3.879 0.07,-3.879 0.053,-3.88 0.037,-3.879 0.019,-3.88 0.003,-3.88 -0.013,-3.88 -0.031,-3.879 -0.047,-3.88 -0.064,-3.879 -0.08,-3.879 -0.098,-3.878 -0.114,-3.878 -0.131,-3.878 -0.147,-3.877 -0.164,-3.876 -0.181,-3.876 -0.198,-3.875 -0.214,-3.873 -0.231,-3.873 -0.248,-3.872 -0.264,-3.871 -0.281,-3.869 -0.298,-3.869 -0.314,-3.867 -0.332,-3.865 -0.347,-3.864 -0.365,-3.863 -0.381,-3.861 -0.398,-3.859 -0.414,-3.858 -0.642,-6.23 -0.657,-6.229 -0.671,-6.227 -0.685,-6.226 -0.7,-6.224 -0.715,-6.222 -0.729,-6.221 -0.743,-6.219 -0.758,-6.217 -0.772,-6.215 -0.787,-6.214 -0.801,-6.212 -0.815,-6.21 -0.83,-6.208 -0.844,-6.206 -0.859,-6.204 -0.185,-1.401 -0.172,-1.403 -0.16,-1.404 -0.147,-1.405 -0.135,-1.407 -0.123,-1.408 -0.11,-1.409 -0.098,-1.41 -0.085,-1.41 -0.073,-1.412 -0.06,-1.411 -0.048,-1.413 -0.036,-1.413 -0.023,-1.413 -0.01,-1.413 0.002,-1.413 0.014,-1.413 0.027,-1.413 0.04,-1.413 0.052,-1.412 0.064,-1.412 0.077,-1.411 0.09,-1.41 0.101,-1.409 0.115,-1.409 0.126,-1.408 0.139,-1.406 0.152,-1.405 0.164,-1.404 0.176,-1.402 0.189,-1.4 0.201,-1.399 0.213,-1.397 0.226,-1.395 0.238,-1.393 0.251,-1.391 0.262,-1.388 0.275,-1.387 0.287,-1.383 0.3,-1.382 0.311,-1.378 0.324,-1.376 0.336,-1.372 0.348,-1.37 0.36,-1.367 0.372,-1.363 0.384,-1.36 0.396,-1.356 0.408,-1.353 0.42,-1.35 0.432,-1.345 0.444,-1.342 0.455,-1.338 0.468,-1.333 0.479,-1.33 0.491,-1.325 0.502,-1.321 0.514,-1.316 0.526,-1.312 0.538,-1.307 0.549,-1.302 0.56,-1.297 0.572,-1.293 0.583,-1.287 0.791,-1.982 0.808,-1.975 0.826,-1.968 0.844,-1.96 0.861,-1.952 0.879,-1.945 0.896,-1.937 0.914,-1.928 0.931,-1.921 0.948,-1.912 0.965,-1.903 0.982,-1.894 1,-1.886 1.016,-1.876 1.033,-1.868 1.05,-1.858 1.066,-1.848 1.083,-1.839 1.099,-1.829 1.116,-1.819 1.132,-1.809 1.149,-1.799 1.164,-1.788 1.181,-1.778 1.196,-1.767 1.212,-1.756 1.228,-1.745 1.244,-1.735 1.259,-1.723 1.275,-1.711 1.29,-1.7 1.305,-1.689 1.32,-1.676 1.335,-1.665 1.35,-1.652 1.365,-1.641 1.38,-1.628 1.394,-1.616 1.409,-1.603 1.423,-1.59 1.437,-1.577 1.451,-1.565 1.466,-1.551 1.479,-1.538 1.493,-1.525 1.507,-1.511 1.52,-1.498 1.533,-1.484 1.547,-1.47 1.56,-1.457 1.573,-1.442 1.586,-1.428 1.599,-1.413 1.611,-1.399 1.624,-1.385 1.636,-1.37 1.648,-1.355 1.661,-1.341 1.673,-1.325 1.684,-1.311 1.696,-1.295 1.708,-1.28 1.719,-1.264 1.73,-1.249 36.974,-27.359 78.751,-58.275 2.643,-1.94 2.631,-1.956 2.62,-1.971 2.607,-1.987 2.596,-2.003 2.584,-2.018 2.572,-2.033 2.559,-2.048 2.547,-2.064 2.535,-2.079 2.523,-2.094 2.51,-2.109 2.497,-2.124 2.485,-2.139 2.472,-2.154 2.459,-2.168 2.446,-2.183 2.433,-2.197 2.42,-2.212 2.406,-2.227 2.394,-2.24 2.38,-2.255 2.366,-2.269 2.353,-2.283 2.339,-2.297 2.325,-2.311 2.312,-2.325 2.298,-2.338 2.283,-2.352 2.27,-2.366 2.256,-2.379 2.241,-2.393 1.118,-1.252 1.113,-1.257 1.109,-1.26 1.104,-1.265 1.099,-1.268 1.094,-1.273 1.09,-1.277 1.085,-1.281 1.08,-1.285 1.075,-1.289 1.071,-1.293 1.066,-1.297 1.06,-1.301 1.056,-1.305 1.051,-1.309 1.047,-1.313 1.041,-1.316 1.036,-1.321 1.032,-1.324 1.026,-1.329 1.022,-1.332 1.016,-1.335 1.012,-1.34 1.006,-1.343 1.002,-1.348 0.997,-1.35 0.991,-1.355 0.986,-1.358 0.982,-1.362 0.976,-1.366 0.971,-1.369 0.966,-1.373 0.961,-1.376 0.956,-1.38 0.95,-1.384 0.946,-1.387 0.94,-1.391 0.935,-1.394 0.93,-1.397 0.925,-1.401 0.919,-1.405 0.914,-1.408 0.909,-1.411 0.904,-1.415 0.898,-1.418 0.893,-1.421 0.888,-1.425 0.882,-1.428 0.878,-1.431 0.871,-1.435 0.867,-1.437 0.861,-1.441 0.855,-1.445 0.851,-1.447 0.844,-1.451 0.84,-1.453 0.834,-1.457 0.828,-1.46 0.823,-1.463 0.818,-1.466 0.812,-1.469 0.807,-1.472 0.801,-1.476 0.796,-1.478 0.79,-1.481 0.785,-1.484 0.779,-1.487 0.773,-1.489 0.768,-1.493 0.763,-1.496 0.756,-1.498 0.752,-1.501 0.745,-1.504 0.74,-1.507 0.735,-1.509 0.728,-1.513 0.723,-1.515 0.718,-1.517 0.712,-1.521 0.706,-1.522 0.7,-1.526 0.695,-1.528 0.689,-1.531 0.683,-1.533 0.678,-1.536 0.672,-1.538 0.666,-1.541 0.66,-1.544 0.655,-1.545 0.648,-1.549 0.643,-1.55 0.638,-1.553 0.631,-1.556 0.626,-1.557 0.619,-1.56 0.614,-1.563 0.609,-1.564 0.602,-1.567 0.596,-1.569 0.591,-1.572 0.585,-1.573 0.579,-1.576 0.573,-1.578 0.567,-1.58 0.561,-1.582 0.555,-1.584 0.55,-1.586 0.543,-1.588 0.538,-1.59 0.531,-1.593 0.526,-1.594 0.52,-1.596 0.513,-1.598 0.508,-1.6 0.502,-1.602 0.496,-1.604 0.49,-1.606 0.483,-1.607 0.478,-1.609 0.472,-1.611 0.466,-1.613 0.46,-1.614 0.454,-1.616 0.447,-1.618 0.442,-1.62 0.436,-1.621 0.429,-1.623 0.424,-1.624 0.46,-1.667 0.452,-1.669 0.445,-1.671 0.439,-1.673 0.43,-1.675 0.424,-1.677 0.416,-1.678 0.409,-1.68 0.402,-1.682 0.395,-1.684 0.387,-1.686 0.38,-1.687 0.372,-1.688 0.366,-1.691 0.358,-1.691 0.351,-1.694 0.343,-1.695 0.336,-1.696 0.329,-1.698 0.321,-1.699 0.314,-1.701 0.307,-1.702 0.299,-1.703 0.292,-1.704 0.285,-1.706 0.277,-1.707 0.27,-1.708 0.262,-1.71 0.255,-1.71 0.248,-1.711 0.24,-1.713 0.233,-1.714 0.225,-1.714 0.218,-1.716 0.211,-1.716 0.203,-1.718 0.196,-1.718 0.188,-1.719 0.181,-1.72 0.174,-1.72 0.166,-1.722 0.158,-1.722 0.151,-1.722 0.144,-1.724 0.136,-1.724 0.129,-1.724 0.121,-1.725 0.114,-1.726 0.106,-1.726 0.099,-1.726 0.092,-1.727 0.084,-1.728 0.076,-1.727 0.069,-1.728 0.062,-1.728 0.054,-1.729 0.047,-1.729 0.039,-1.729 0.032,-1.729 0.024,-1.729 0.017,-1.729 0.009,-1.729 0.002,-1.73 -0.006,-1.729 -8.539,-201.831 -5.126,-119.34 -10.661,-235.935 -9.492,-206.262 -13.33,-295.062 -191.222,56.063 -1.926,0.57 -1.923,0.58 -1.919,0.59 -1.917,0.6 -1.913,0.611 -1.91,0.62 -1.907,0.631 -1.903,0.641 -1.9,0.65 -1.897,0.661 -1.893,0.671 -1.889,0.681 -1.886,0.69 -1.882,0.701 -1.879,0.711 -1.875,0.72 -1.87,0.731 -1.867,0.74 -1.863,0.75 -1.859,0.76 -1.855,0.77 -1.851,0.78 -1.847,0.789 -1.842,0.799 -1.839,0.809 -1.833,0.819 -1.83,0.828 -1.825,0.838 -1.821,0.848 -1.816,0.857 -1.812,0.867 -1.807,0.876 -1.802,0.886 -1.798,0.895 -1.793,0.905 -1.788,0.914 -1.784,0.924 -1.778,0.933 -1.773,0.943 -1.769,0.952 -1.763,0.961 -1.758,0.971 -1.754,0.98 -1.748,0.989 -1.742,0.998 -1.738,1.008 -1.732,1.016 -1.726,1.026 -1.721,1.035 -1.716,1.044 -1.71,1.053 -1.705,1.062 -1.699,1.071 -1.693,1.08 -1.687,1.089 -1.682,1.098 -1.676,1.107 -1.67,1.115 -1.664,1.125 -1.658,1.133 -1.652,1.142 -1.646,1.151 -1.64,1.159 -1.634,1.168 -0.323,0.22 -0.333,0.205 -0.343,0.188 -0.352,0.171 -0.36,0.153 -0.366,0.136 -0.373,0.117 -0.378,0.1 -0.383,0.08 -0.386,0.062 -0.389,0.043 -0.39,0.024 -0.391,0.005 -0.391,-0.014 -0.39,-0.034 -0.387,-0.052 -0.385,-0.071 -0.38,-0.09 -0.376,-0.109 -0.37,-0.126 -0.363,-0.145 -0.356,-0.162 -0.347,-0.179 -0.339,-0.197 -0.328,-0.212 -0.317,-0.228 -0.306,-0.244 -0.294,-0.258 -0.281,-0.272 -0.267,-0.285 -0.253,-0.299 -0.238,-0.31 -0.7,-0.955 -0.704,-0.952 -0.708,-0.948 -0.713,-0.945 -0.717,-0.942 -0.721,-0.939 -0.726,-0.935 -0.73,-0.932 -0.734,-0.928 -0.739,-0.926 -0.743,-0.921 -0.747,-0.919 -0.751,-0.915 -0.755,-0.911 -0.76,-0.908 -0.764,-0.905 -0.768,-0.901 -0.772,-0.897 -0.776,-0.894 -0.78,-0.89 -0.784,-0.887 -0.789,-0.883 -0.792,-0.88 -0.796,-0.875 -0.801,-0.873 -0.804,-0.868 -0.809,-0.865 -0.812,-0.861 -0.817,-0.857 -0.82,-0.854 -0.824,-0.849 -0.828,-0.846 -0.832,-0.843 -0.836,-0.838 -0.84,-0.834 -0.843,-0.831 -0.847,-0.827 -0.851,-0.823 -0.855,-0.819 -0.859,-0.815 -0.862,-0.811 -0.866,-0.807 -0.87,-0.803 -0.873,-0.799 -0.877,-0.795 -0.881,-0.791 -0.884,-0.787 -0.888,-0.783 -0.892,-0.779 -0.895,-0.775 -0.899,-0.77 -0.902,-0.767 -0.905,-0.762 -0.91,-0.758 -0.912,-0.754 -0.916,-0.75 -0.92,-0.745 -0.923,-0.742 -0.926,-0.737 -0.93,-0.733 -0.933,-0.728 -0.936,-0.724 -0.94,-0.72 -0.943,-0.716 -0.946,-0.711 -0.95,-0.707 -0.953,-0.703 -0.956,-0.698 -0.959,-0.694 -0.962,-0.689 -0.966,-0.685 -0.968,-0.681 -0.972,-0.676 -0.975,-0.671 -0.978,-0.667 -0.981,-0.663 -0.984,-0.658 -0.987,-0.654 -0.99,-0.649 -0.993,-0.644 -0.996,-0.64 -0.999,-0.635 -1.002,-0.631 -1.004,-0.626 -1.008,-0.622 -1.01,-0.617 -1.014,-0.612 -1.016,-0.607 -1.018,-0.603 -1.022,-0.599 -1.024,-0.593 -1.027,-0.589 -1.03,-0.584 -1.032,-0.579 -1.035,-0.575 -1.038,-0.57 -1.04,-0.565 -1.043,-0.56 -1.045,-0.556 -1.048,-0.55 -1.051,-0.546 -1.053,-0.541 -1.055,-0.536 -1.058,-0.532 -1.06,-0.526 -1.063,-0.522 -1.065,-0.517 -1.067,-0.511 -1.07,-0.507 -1.072,-0.502 -1.075,-0.497 -1.076,-0.493 -1.079,-0.487 -1.081,-0.482 -1.084,-0.477 -1.085,-0.473 -1.088,-0.467 -1.09,-0.462 -1.092,-0.457 -1.094,-0.453 -1.096,-0.447 -1.098,-0.442 -1.1,-0.437 -1.102,-0.432 -1.104,-0.427 -1.106,-0.422 -1.108,-0.417 -1.11,-0.412 -137.026,-50.506 -1.715,4.16 -28.648,-11.811 -1.277,-0.533 -1.272,-0.543 -1.267,-0.555 -1.262,-0.565 -1.258,-0.576 -1.252,-0.587 -1.248,-0.598 -1.242,-0.608 -1.237,-0.619 -1.232,-0.63 -1.226,-0.64 -1.221,-0.651 -1.215,-0.661 -1.209,-0.671 -1.204,-0.682 -1.197,-0.692 -1.192,-0.703 -1.185,-0.713 -1.18,-0.723 -1.173,-0.733 -1.167,-0.743 -1.16,-0.753 -1.154,-0.763 -1.147,-0.772 -1.14,-0.783 -1.134,-0.793 -1.127,-0.802 -1.12,-0.812 -1.113,-0.821 -1.106,-0.831 -1.099,-0.84 -1.091,-0.85 -1.084,-0.859 -1.077,-0.869 -1.069,-0.878 -1.061,-0.886 -1.054,-0.896 -1.047,-0.905 -1.038,-0.914 -1.03,-0.923 -1.023,-0.931 -1.014,-0.941 -1.007,-0.949 -0.998,-0.958 -0.99,-0.966 -0.981,-0.974 -0.974,-0.983 -0.964,-0.992 -0.956,-0.999 -0.948,-1.008 -0.939,-1.016 -0.93,-1.024 -0.921,-1.032 -0.912,-1.04 -0.904,-1.047 -0.894,-1.056 -0.885,-1.062 -0.876,-1.071 -0.867,-1.078 -0.857,-1.085 -0.849,-1.093 -0.838,-1.1 -0.83,-1.107 -0.819,-1.114 -0.81,-1.122 -0.801,-1.128 -0.791,-1.135 -0.781,-1.141 -0.771,-1.149 -0.761,-1.155 -0.751,-1.161 -0.741,-1.168 -0.732,-1.174 -0.721,-1.181 -0.711,-1.186 -0.7,-1.193 -0.691,-1.199 -0.68,-1.204 -0.67,-1.211 -0.659,-1.216 -0.649,-1.221 -0.638,-1.227 -0.628,-1.233 -0.617,-1.238 -0.606,-1.243 -0.596,-1.249 -0.585,-1.253 -0.574,-1.259 -0.564,-1.263 -0.552,-1.268 -0.542,-1.273 -0.53,-1.277 -0.52,-1.282 -0.509,-1.287 -0.497,-1.29 -0.487,-1.295 -0.475,-1.299 -0.464,-1.303 -0.453,-1.307 -0.442,-1.311 -0.43,-1.315 -0.419,-1.318 -0.408,-1.322 -0.396,-1.325 -0.385,-1.329 -0.374,-1.332 -0.362,-1.335 -0.35,-1.338 -0.339,-1.341 -0.328,-1.344 -0.316,-1.346 -0.304,-1.35 -0.293,-1.352 -0.281,-1.354 -0.27,-1.357 -0.258,-1.359 -0.246,-1.361 -0.234,-1.363 -0.223,-1.365 -0.211,-1.367 -0.199,-1.369 -0.188,-1.371 -0.176,-1.372 -0.164,-1.373 -0.152,-1.375 -0.14,-1.376 -0.128,-1.378 -0.117,-1.378 -7.856,-97.801 -0.11,-1.258 -0.127,-1.256 -0.143,-1.254 -0.161,-1.252 -0.177,-1.25 -0.194,-1.248 -0.211,-1.245 -0.227,-1.241 -0.244,-1.239 -0.261,-1.235 -0.277,-1.232 -0.294,-1.228 -0.31,-1.224 -0.327,-1.219 -0.343,-1.215 -0.359,-1.21 -0.376,-1.206 -0.391,-1.2 -0.408,-1.195 -0.424,-1.189 -0.44,-1.183 -0.455,-1.178 -0.471,-1.171 -0.487,-1.165 -0.503,-1.158 -0.518,-1.151 -0.534,-1.144 -0.548,-1.137 -0.565,-1.13 -0.579,-1.121 -0.594,-1.114 -0.609,-1.106 -0.624,-1.098 -0.639,-1.089 -0.653,-1.08 -0.667,-1.072 -0.682,-1.062 -0.696,-1.053 -0.711,-1.044 -0.724,-1.034 -0.738,-1.024 -0.751,-1.015 -0.766,-1.004 -0.778,-0.994 -0.792,-0.983 -0.805,-0.972 -0.818,-0.962 -0.831,-0.95 -0.844,-0.94 -0.856,-0.927 -0.869,-0.917 -0.88,-0.904 -0.893,-0.893 -0.905,-0.88 -0.916,-0.869 -0.928,-0.856 -0.94,-0.843 -0.951,-0.831 -0.961,-0.818 -0.973,-0.804 -0.983,-0.792 -0.994,-0.779 -1.005,-0.765 -1.014,-0.751 -1.062,-0.766 -1.072,-0.752 -1.081,-0.74 -1.09,-0.725 -1.1,-0.712 -1.108,-0.698 -1.117,-0.684 -1.125,-0.67 -1.133,-0.656 -1.142,-0.641 -1.15,-0.628 -1.157,-0.613 -1.165,-0.598 -1.172,-0.584 -1.18,-0.569 -1.186,-0.554 -1.194,-0.539 -1.2,-0.525 -1.206,-0.509 -1.213,-0.494 -1.219,-0.479 -1.225,-0.464 -1.23,-0.448 -1.236,-0.433 -1.241,-0.417 -1.247,-0.402 -1.251,-0.386 -1.256,-0.371 -1.261,-0.355 -1.265,-0.339 -1.269,-0.323 -1.273,-0.307 -1.908,-16.747 -59.174,-51.963 4.396,-7.371 10.216,-20.886 9.368,-21.978 2.585,-6.821 -67.271,-25.963 -10.182,26.503 -9.756,19.849 -78.073,-68.575 -137.905,-261.011 -100.123,-189.151 0.162,-1.345 0.156,-1.345 0.151,-1.347 0.144,-1.347 0.138,-1.347 0.132,-1.348 0.126,-1.349 0.12,-1.349 0.114,-1.35 0.108,-1.35 0.102,-1.351 0.095,-1.351 0.09,-1.352 0.084,-1.352 0.077,-1.352 0.072,-1.353 -29.405,-4.104 2.905,-20.815 -14.887,-28.145 1.486,-14.7 1.384,-15.554 1.093,-16.055 0.553,-11.393 -69.689,1.526 6.743,-56.338 -37.193,-71.626 -91.403,-183.755 -91.524,-183.564 -84.925,-108.519 -138.363,-176.805 -74.807,-95.593 -113.388,-146.321 -113.358,-146.89 -150.715,18.852 -153.864,20.359 -36.991,15.415 -2.742,14.955 -23.806,95.988 -8.93,58.37 -8.68,57.071 -17.512,51.849 -9.054,73.606 5.645,84.317 15.971,79.408 2.226,81.153 24.199,64.579 -1.793,47.299 -1.462,56.865 -6.879,44.47 -20.651,74.591 -5.93,19.705 -1.142,0.065 -1.142,0.078 -1.141,0.09 -1.14,0.102 -1.138,0.115 -1.138,0.127 -1.135,0.139 -1.135,0.152 -1.132,0.164 -1.131,0.177 -1.129,0.188 -1.126,0.201 -1.124,0.214 -1.122,0.225 -1.12,0.238 -1.117,0.25 -1.114,0.261 -1.111,0.274 -1.108,0.286 -1.104,0.299 -1.102,0.31 -1.098,0.322 -1.095,0.334 -1.09,0.346 -1.087,0.357 -1.084,0.37 -1.078,0.381 -1.075,0.393 -1.071,0.405 -1.066,0.416 -1.061,0.428 -1.057,0.439 -1.052,0.451 -1.046,0.462 -1.042,0.473 -1.037,0.485 -1.031,0.496 -1.026,0.508 -1.02,0.518 -1.014,0.529 -1.009,0.541 -1.003,0.551 -0.997,0.562 -0.99,0.574 -0.984,0.583 -0.978,0.595 -0.972,0.605 -0.964,0.615 -0.958,0.626 -0.951,0.637 -0.944,0.647 -0.937,0.656 -0.93,0.668 -0.923,0.677 -0.915,0.687 -0.907,0.697 -0.9,0.707 -0.892,0.716 -0.885,0.727 -0.876,0.736 -0.868,0.745 -0.861,0.755 -0.851,0.764 -0.844,0.773 -0.543,0.511 -0.536,0.518 -0.528,0.527 -0.521,0.534 -0.513,0.541 -0.505,0.549 -0.497,0.555 -0.488,0.563 -0.481,0.571 -0.472,0.576 -0.464,0.584 -0.456,0.59 -0.447,0.597 -0.438,0.604 -0.43,0.609 -0.42,0.616 -0.412,0.622 -0.403,0.627 -0.393,0.633 -0.385,0.639 -0.375,0.645 -0.366,0.65 -0.356,0.655 -0.347,0.66 -0.337,0.665 -0.328,0.67 -0.318,0.674 -0.308,0.679 -0.298,0.683 -0.288,0.688 -0.279,0.692 -0.268,0.696 -0.258,0.699 -0.249,0.703 -0.238,0.707 -0.227,0.71 -0.218,0.713 -0.207,0.716 -0.197,0.72 -0.186,0.722 -0.176,0.724 -0.165,0.727 -0.155,0.73 -0.145,0.731 -0.133,0.734 -0.123,0.735 -0.113,0.737 -0.102,0.739 -0.091,0.74 -0.08,0.741 -0.07,0.743 -0.059,0.743 -0.048,0.744 -0.038,0.745 -0.026,0.745 -0.016,0.746 -0.005,0.745 0.005,0.746 0.017,0.745 0.027,0.746 0.038,0.744 0.048,0.744 0.06,0.744 0.07,0.742 5.58,54.794 -103.207,12.692 -92.563,11.385 2.715,75.942 -6.211,74.744 -10.771,76.929 -39.157,-3.282 -1.262,-0.111 -1.262,-0.121 -1.26,-0.131 -1.26,-0.141 -1.258,-0.152 -1.257,-0.161 -1.256,-0.171 -1.254,-0.182 -1.252,-0.192 -1.252,-0.201 -1.249,-0.212 -1.248,-0.222 -1.246,-0.231 -1.244,-0.242 -1.242,-0.252 -1.24,-0.261 -1.238,-0.272 -1.235,-0.281 -1.234,-0.292 -1.23,-0.301 -1.229,-0.311 -1.226,-0.321 -1.223,-0.331 -1.221,-0.34 -1.218,-0.351 -1.215,-0.36 -1.212,-0.37 -1.209,-0.379 -1.206,-0.389 -1.203,-0.399 -1.2,-0.409 -1.196,-0.418 -1.193,-0.428 -1.189,-0.437 -1.186,-0.447 -1.182,-0.456 -1.179,-0.466 -1.175,-0.475 -1.171,-0.485 -1.167,-0.494 -1.163,-0.503 -1.159,-0.513 -1.155,-0.522 -1.15,-0.531 -1.146,-0.54 -1.142,-0.55 -1.138,-0.558 -1.133,-0.568 -1.128,-0.577 -1.124,-0.586 -1.119,-0.595 -1.114,-0.604 -1.109,-0.613 -1.105,-0.621 -1.099,-0.631 -1.094,-0.639 -1.089,-0.648 -1.084,-0.657 -1.078,-0.665 -1.074,-0.674 -1.067,-0.683 -1.062,-0.691 -1.057,-0.7 -1.051,-0.708 -23.097,-15.692 -51.183,63.129 -29.642,55.17 -7.04,54.383 23.351,52.812 34.905,57.553 15.766,36.65 37.509,94.92 25.71,59.499 41.05,90.791 42.197,101.615 21.783,55.384 1.929,10.279 0.284,0.747 0.27,0.752 0.258,0.757 0.244,0.761 0.23,0.765 0.217,0.77 0.204,0.772 0.19,0.777 0.176,0.779 0.162,0.783 0.149,0.785 0.135,0.788 0.121,0.79 0.107,0.792 0.094,0.794 0.079,0.795 0.065,0.797 0.052,0.797 0.037,0.799 0.023,0.799 0.01,0.799 -0.005,0.799 -0.019,0.799 -0.033,0.799 -0.047,0.798 -0.061,0.797 -0.075,0.795 -0.089,0.795 -0.102,0.792 -0.117,0.791 -0.131,0.788 -0.144,0.786 -0.158,0.784 -0.172,0.78 -0.186,0.778 -0.199,0.774 -0.213,0.77 -0.226,0.767 -0.24,0.762 -0.253,0.758 -0.266,0.754 -0.28,0.749 -0.293,0.743 -0.305,0.739 -0.319,0.733 -0.331,0.727 -0.345,0.722 -0.356,0.715 -0.37,0.709 -0.381,0.702 -0.394,0.695 -0.407,0.689 -0.418,0.681 -0.43,0.673 -0.442,0.666 -0.453,0.659 -0.465,0.65 -0.476,0.642 -0.488,0.633 -0.498,0.625 -0.51,0.615 -0.52,0.607 -0.531,0.598 -0.541,0.588 -7.218,7.687 -0.823,0.893 -0.809,0.906 -0.794,0.92 -0.778,0.932 -0.763,0.945 -0.748,0.957 -0.732,0.969 -0.717,0.981 -0.7,0.993 -0.683,1.003 -0.668,1.015 -0.651,1.026 -0.634,1.036 -0.617,1.046 -0.599,1.056 -0.583,1.066 -0.565,1.075 -0.547,1.084 -0.53,1.093 -0.512,1.102 -0.494,1.11 -0.475,1.117 -0.458,1.125 -0.439,1.133 -0.42,1.139 -0.402,1.147 -0.383,1.152 -0.364,1.159 -0.346,1.164 -0.326,1.17 -0.307,1.175 -0.288,1.18 -0.269,1.185 -0.249,1.189 -0.23,1.192 -0.21,1.197 -0.191,1.199 -0.172,1.203 -0.151,1.205 -0.133,1.207 -0.112,1.209 -0.092,1.211 -0.073,1.213 -0.053,1.213 -0.034,1.214 -0.013,1.215 0.006,1.215 0.026,1.214 0.046,1.214 0.066,1.212 0.085,1.212 0.105,1.21 0.125,1.208 0.145,1.206 0.164,1.204 0.184,1.2 0.203,1.198 0.223,1.194 0.242,1.19 0.262,1.186 0.281,1.182 0.3,1.177 0.32,1.171 0.338,1.167 16.195,53.985 59.603,153.367 24.033,81.431 31.883,73.553 -218.158,106.485 -218.148,106.518 -2.47,-0.385 -35.754,-14.802 -32.6,11.091 -35.001,5.05 -69.15,-0.3 -39.15,-4.95 -12.053,-6.702 -28.221,6.976 -100.934,9.785 -79.631,7.741 -10.596,2.667 -19.38,4.885 -80.697,20.323 -63.642,15.672 -74.377,18.749 -96.285,24.304 -32.716,6.879 -34.137,7.452 -46.751,9.9 -78.397,17.024 -73.817,15.97 -88.628,19.912 -59.163,13.505 -55.208,12.324 -7.93,1.897 -8.036,0.323 -4.712,-1.161 -7.469,-2.349 -4.678,-1.781 -16.871,-6.521 -54.046,-18.995 -37.406,-12.049 -56.348,-11.63 -25.567,-4.215 -16.508,-3.539 -16.274,-4.488 -16.005,-5.43 -15.861,-6.537 -16.235,-5.376 -57.043,-15.425 -50.982,-12.475 -45.95,-10.616 -18.375,-3.904 -76.952,-17.739 -37.377,-4.193 -37.836,-3.45 -49.512,0.343 0.637,2.619 28.259,117.417 18.163,75.465 66.215,275.331 101.483,420.975 187.612,-69.819 135.623,356.728 114.461,234.439 -1.3,20.17 -224.387,217.849 -129.266,150.137 -86.781,158.516 -59.767,73.452 -123.349,95.929 -122.318,95.79 -1.06,1.46 198.58,74.187 72.266,246.554 80.179,238.315 -216.379,221.802 32.28,120 198.018,128.162 216.357,140.397 227.692,149.871 78.942,161.271 194.83,-28.006 190.829,-33.29 273.985,-107.641 86.417,35.053 184.692,24.192 143.458,-41.158 140.643,-41.067 152.626,-44.567 -20.403,340.266 25.292,253.005 73.509,359.661 93.139,273.836 96.171,219.178 59.188,153.642 162.469,-53.317 148.114,-48.607 156.482,-57.987 242.275,-89.78 264.115,-165.982 214.476,-134.224 -17.282,-235.763 -39.182,-164.192 30.736,-4.344 17.443,-13.652 5.308,-85.273 43.027,-57.848 -33.42,-223.458 223.427,25.199 117.261,9.662 143.518,-0.04 141.919,-2.081 133.196,-17.852 130.537,-34.54 182.811,-89.622 109.716,76.915 134.676,88.864 117.352,89.672 44.686,28.598 49.735,-61.297 z "/>
<path fme:R2_NAME="Riehen" fme:R2_BFSNR="2703" fme:Area="10871620.1785813" d="M 5255.97,6689.92 l 34.624,22.158 107.343,87.703 118.992,107.483 119.031,127.443 111.982,127.121 113.625,125.755 111.653,120.378 56.985,101.242 57.152,90.607 60.755,88.106 239.632,222.196 271.253,109.264 -104.471,173.898 -5.903,142.802 94.713,95.126 102.023,77.567 94.756,135.378 251.803,-80.485 153.736,-56.174 301.54,-34.878 267.13,-100.312 231.715,-86.57 220.712,-114.649 204.065,-79.44 174.81,-1.686 190.907,-2.475 224.074,9.951 24.277,118.214 96.169,141.361 96.037,116.178 124.013,111.942 70.483,92.889 67.121,15.883 109.243,129.299 136.057,30.868 165.719,-7.187 72.363,-9.883 99.926,26.446 174.486,83.257 126.496,147.949 35.171,-15.754 -56.405,-142.911 -79.578,-90.486 -136.551,-123.307 -103.637,-26.323 -171.618,-44.004 -133.371,-34.743 -80.342,-68.575 -61.39,-97.629 -63.33,-98.526 -179.703,-224.516 -165.251,-98.893 -213.063,-237.097 -109.319,-119.408 -100.391,-99.752 13.549,-121.266 11.735,-104.463 109.489,-56.446 106.518,-54.71 148.881,-54.467 151.709,-52.429 145.02,-64.096 38.532,-187.738 -41.067,14.556 -104.865,-82.488 -56.019,-27.46 0.665,-41.933 -13.072,-45.385 -25.643,-49.727 -15.681,-36.607 -16.579,-51.295 -3.402,-53.707 -6.821,-37.647 -10.316,-32.717 -7.138,-56.923 -2.592,-59.391 3.657,-30.993 6.099,-27.944 2.343,-22.329 11.341,-74.98 -20.883,-23.506 -28.019,2.55 -0.724,-0.143 -0.722,-0.154 -0.719,-0.165 -0.716,-0.176 -0.714,-0.187 -0.711,-0.198 -0.708,-0.208 -0.705,-0.22 -0.701,-0.229 -0.697,-0.241 -0.694,-0.251 -0.69,-0.262 -0.686,-0.272 -0.682,-0.283 -0.677,-0.292 -0.673,-0.304 -0.668,-0.313 -0.663,-0.323 -0.658,-0.334 -0.653,-0.344 -0.648,-0.353 -0.642,-0.363 -0.637,-0.373 -0.631,-0.383 -0.625,-0.392 -0.619,-0.402 -0.613,-0.411 -0.607,-0.42 -0.6,-0.429 -0.593,-0.439 -0.587,-0.447 -0.58,-0.457 -0.572,-0.465 -0.566,-0.474 -0.559,-0.482 -0.551,-0.491 -0.543,-0.499 -0.536,-0.507 -0.528,-0.516 -0.52,-0.523 -0.512,-0.531 -0.504,-0.539 -0.496,-0.547 -0.487,-0.554 -0.479,-0.562 -0.47,-0.568 -0.462,-0.576 -0.453,-0.583 -0.443,-0.589 -0.435,-0.596 -0.426,-0.603 -0.416,-0.609 -0.408,-0.616 -0.397,-0.621 -0.389,-0.628 -0.378,-0.633 -0.369,-0.639 -0.359,-0.645 -0.35,-0.65 -0.339,-0.655 -0.33,-0.66 -0.319,-0.665 -0.309,-0.67 -0.299,-0.675 -0.245,-0.553 -0.252,-0.55 -0.261,-0.547 -0.267,-0.542 -0.275,-0.539 -0.283,-0.535 -0.29,-0.531 -0.298,-0.527 -0.305,-0.523 -0.312,-0.519 -0.319,-0.514 -0.326,-0.51 -0.333,-0.505 -0.341,-0.5 -0.347,-0.495 -0.354,-0.491 -0.361,-0.486 -0.368,-0.481 -0.374,-0.475 -0.381,-0.47 -0.387,-0.465 -0.394,-0.46 -0.4,-0.454 -0.407,-0.448 -0.412,-0.443 -0.419,-0.437 -0.425,-0.431 -0.43,-0.425 -0.437,-0.419 -0.442,-0.413 -0.448,-0.407 -0.454,-0.4 -16.324,-7.501 -26.635,-12.373 -69.096,20.557 -111.77,5.011 -47.688,3.428 -79.109,-39.734 -113.928,-14.023 -69.149,36.514 -84.701,27.21 -99.749,33.985 3.148,19.043 0.075,0.5 0.059,0.503 0.043,0.504 0.027,0.505 0.011,0.506 -0.005,0.506 -0.021,0.505 -0.037,0.505 -0.053,0.503 -0.069,0.501 -0.084,0.499 -0.101,0.496 -0.116,0.492 -0.131,0.489 -0.147,0.484 -0.162,0.479 -0.177,0.474 -0.192,0.468 -0.207,0.462 -0.221,0.455 -0.236,0.447 -0.249,0.44 -0.263,0.432 -0.277,0.424 -0.29,0.414 -0.303,0.405 -0.316,0.396 -0.328,0.385 -0.34,0.374 -0.352,0.364 -0.363,0.352 -0.374,0.341 -29.192,25.774 -0.661,0.436 -0.666,0.429 -0.669,0.423 -0.674,0.416 -0.677,0.411 -0.681,0.403 -0.686,0.398 -0.688,0.39 -0.693,0.385 -0.696,0.377 -0.7,0.371 -0.703,0.364 -0.706,0.358 -0.71,0.351 -0.713,0.344 -0.717,0.338 -0.719,0.33 -0.723,0.324 -0.726,0.317 -0.728,0.31 -0.732,0.303 -0.734,0.296 -0.738,0.29 -0.74,0.282 -0.742,0.275 -0.745,0.268 -0.748,0.261 -0.75,0.254 -0.753,0.247 -0.754,0.239 -0.757,0.233 -0.76,0.225 -0.761,0.218 -0.763,0.211 -0.765,0.204 -0.768,0.196 -0.769,0.189 -0.77,0.182 -0.773,0.174 -0.774,0.168 -0.776,0.159 -0.777,0.153 -0.778,0.145 -0.78,0.137 -0.781,0.131 -0.783,0.123 -0.783,0.115 -0.784,0.108 -0.786,0.1 -0.786,0.094 -0.788,0.085 -0.788,0.078 -0.788,0.071 -0.79,0.063 -0.79,0.056 -0.79,0.048 -0.791,0.041 -0.791,0.033 -0.792,0.026 -0.792,0.018 -0.791,0.011 -0.792,0.003 -0.792,-0.004 -0.792,-0.012 -39.42,-6.794 -23.689,55.177 -151.756,-48.878 -39.605,-45.76 -32.68,-70.938 -29.944,-21.903 66.387,-120.532 -72.543,-43.957 31.892,-48.533 -50.236,-41.745 -22.609,-19.724 -20.632,-26.896 -30.58,23.455 -16.757,-34.404 -22.148,-45.285 -17.51,-49.218 -37.592,-66.646 -24.122,-42.966 -7.989,-44.878 -85.244,-129.834 -48.328,-142.499 -19.873,-72.503 -69.39,-105.697 -77.299,-108.377 -61.913,-93.156 -40.802,-48.632 -14.785,-10.396 -1.135,-0.803 -1.13,-0.808 -1.125,-0.816 -1.121,-0.821 -1.117,-0.828 -1.111,-0.834 -1.108,-0.84 -1.102,-0.846 -1.097,-0.853 -1.093,-0.858 -1.088,-0.865 -1.083,-0.871 -1.078,-0.877 -1.074,-0.883 -1.068,-0.889 -1.063,-0.894 -1.059,-0.901 -1.053,-0.907 -1.048,-0.912 -1.043,-0.919 -1.038,-0.924 -1.033,-0.93 -1.027,-0.936 -1.022,-0.942 -1.017,-0.947 -1.012,-0.953 -1.006,-0.958 -1.001,-0.965 -0.995,-0.969 -0.99,-0.976 -0.985,-0.981 -0.979,-0.986 -10.415,-10.552 21.122,-36.992 -172.358,-98.328 -155.711,-107.809 -133.531,62.52 -33.126,24.416 -151.818,62.696 -210.02,-2.778 -87.951,81.469 -133.016,136.117 -166.635,76.415 -109.492,-202.711 -52.478,-97.156 -92.549,29.266 -10.054,1.927 29.415,114.659 54.411,212.096 31.418,122.468 -211.36,266.554 -29.343,-22.995 -39.496,-30.073 -37.096,-27.592 -44.359,-31.608 -82.31,-57.054 -20.146,28.592 -172.447,244.741 -14.976,21.254 17.358,12.231 -57.362,81.411 -72.849,-104.317 -0.26,-0.367 -0.266,-0.362 -0.271,-0.359 -0.276,-0.355 -0.282,-0.35 -0.287,-0.346 -0.292,-0.342 -0.297,-0.337 -0.302,-0.333 -0.307,-0.329 -0.312,-0.323 -0.317,-0.319 -0.322,-0.314 -0.326,-0.31 -0.331,-0.304 -0.335,-0.3 -0.34,-0.294 -0.344,-0.289 -0.348,-0.284 -0.353,-0.279 -0.357,-0.274 -0.361,-0.268 -0.365,-0.262 -0.368,-0.257 -0.373,-0.252 -0.376,-0.246 -0.38,-0.24 -0.384,-0.235 -0.387,-0.229 -0.39,-0.223 -0.394,-0.217 -0.396,-0.211 -0.4,-0.206 -0.403,-0.199 -0.406,-0.193 -0.409,-0.187 -0.412,-0.181 -0.414,-0.175 -0.417,-0.168 -0.419,-0.162 -0.422,-0.156 -0.424,-0.15 -0.426,-0.143 -0.428,-0.137 -0.43,-0.131 -0.432,-0.123 -0.434,-0.118 -0.436,-0.111 -0.437,-0.104 -0.439,-0.098 -0.44,-0.091 -0.442,-0.085 -0.443,-0.078 -0.443,-0.071 -0.445,-0.065 -0.446,-0.058 -0.447,-0.052 -0.447,-0.044 -0.448,-0.038 -0.449,-0.031 -0.449,-0.025 -0.449,-0.018 -0.449,-0.011 -0.45,-0.004 -0.449,0.002 -0.45,0.01 -0.449,0.015 -0.449,0.023 -0.449,0.029 -0.448,0.037 -0.447,0.042 -0.447,0.05 -0.446,0.056 -0.445,0.063 -0.445,0.069 -0.443,0.076 -0.441,0.083 -0.441,0.09 -0.439,0.096 -0.438,0.102 -0.436,0.109 -0.435,0.116 -0.432,0.122 -0.431,0.129 -0.429,0.135 -0.427,0.141 -0.424,0.148 -0.422,0.154 -0.42,0.161 -0.418,0.167 -0.415,0.173 -0.412,0.179 -0.41,0.185 -0.406,0.192 -0.404,0.197 -0.401,0.204 -0.398,0.209 -0.394,0.216 -0.392,0.221 -0.388,0.227 -0.384,0.233 -0.381,0.239 -0.377,0.245 -0.374,0.25 -0.37,0.255 -0.366,0.261 -0.362,0.267 -0.358,0.272 -0.354,0.277 -0.349,0.283 -0.346,0.288 -0.341,0.293 -0.336,0.298 -0.332,0.303 -0.328,0.308 -0.323,0.312 -0.318,0.318 -0.313,0.322 -0.309,0.327 -0.303,0.332 -0.299,0.336 -0.293,0.341 -0.289,0.345 -0.283,0.349 -0.278,0.353 -0.272,0.358 -0.267,0.361 -0.262,0.366 -49.743,70.598 -54.544,120.181 -41.736,141.356 -46.909,158.878 194.208,217.417 272.891,221.39 -68.331,84.217 -68.329,84.214 -49.735,61.297 z "/>
<path fme:R2_NAME="Bettingen" fme:R2_BFSNR="2702" fme:Area="2227019.07669541" d="M 7354.08,4771.06 l 10.415,10.552 0.979,0.986 0.985,0.981 0.99,0.976 0.995,0.969 1.001,0.965 1.006,0.958 1.012,0.953 1.017,0.947 1.022,0.942 1.027,0.936 1.033,0.93 1.038,0.924 1.043,0.919 1.048,0.912 1.053,0.907 1.059,0.901 1.063,0.894 1.068,0.889 1.074,0.883 1.078,0.877 1.083,0.871 1.088,0.865 1.093,0.858 1.097,0.853 1.102,0.846 1.108,0.84 1.111,0.834 1.117,0.828 1.121,0.821 1.125,0.816 1.13,0.808 1.135,0.803 14.785,10.396 40.802,48.632 61.913,93.156 77.299,108.377 69.39,105.697 19.873,72.503 48.328,142.499 85.244,129.834 7.989,44.878 24.122,42.966 37.592,66.646 17.51,49.218 22.148,45.285 16.757,34.404 30.58,-23.455 20.632,26.896 22.609,19.724 50.236,41.745 -31.892,48.533 72.543,43.957 -66.387,120.532 29.944,21.903 32.68,70.938 39.605,45.76 151.756,48.878 23.689,-55.177 39.42,6.794 0.792,0.012 0.792,0.004 0.792,-0.003 0.791,-0.011 0.792,-0.018 0.792,-0.026 0.791,-0.033 0.791,-0.041 0.79,-0.048 0.79,-0.056 0.79,-0.063 0.788,-0.071 0.788,-0.078 0.788,-0.085 0.786,-0.094 0.786,-0.1 0.784,-0.108 0.783,-0.115 0.783,-0.123 0.781,-0.131 0.78,-0.137 0.778,-0.145 0.777,-0.153 0.776,-0.159 0.774,-0.168 0.773,-0.174 0.77,-0.182 0.769,-0.189 0.768,-0.196 0.765,-0.204 0.763,-0.211 0.761,-0.218 0.76,-0.225 0.757,-0.233 0.754,-0.239 0.753,-0.247 0.75,-0.254 0.748,-0.261 0.745,-0.268 0.742,-0.275 0.74,-0.282 0.738,-0.29 0.734,-0.296 0.732,-0.303 0.728,-0.31 0.726,-0.317 0.723,-0.324 0.719,-0.33 0.717,-0.338 0.713,-0.344 0.71,-0.351 0.706,-0.358 0.703,-0.364 0.7,-0.371 0.696,-0.377 0.693,-0.385 0.688,-0.39 0.686,-0.398 0.681,-0.403 0.677,-0.411 0.674,-0.416 0.669,-0.423 0.666,-0.429 0.661,-0.436 29.192,-25.774 0.374,-0.341 0.363,-0.352 0.352,-0.364 0.34,-0.374 0.328,-0.385 0.316,-0.396 0.303,-0.405 0.29,-0.414 0.277,-0.424 0.263,-0.432 0.249,-0.44 0.236,-0.447 0.221,-0.455 0.207,-0.462 0.192,-0.468 0.177,-0.474 0.162,-0.479 0.147,-0.484 0.131,-0.489 0.116,-0.492 0.101,-0.496 0.084,-0.499 0.069,-0.501 0.053,-0.503 0.037,-0.505 0.021,-0.505 0.005,-0.506 -0.011,-0.506 -0.027,-0.505 -0.043,-0.504 -0.059,-0.503 -0.075,-0.5 -3.148,-19.043 99.749,-33.985 84.701,-27.21 69.149,-36.514 113.928,14.023 79.109,39.734 47.688,-3.428 111.77,-5.011 69.096,-20.557 26.635,12.373 16.324,7.501 0.454,0.4 0.448,0.407 0.442,0.413 0.437,0.419 0.43,0.425 0.425,0.431 0.419,0.437 0.412,0.443 0.407,0.448 0.4,0.454 0.394,0.46 0.387,0.465 0.381,0.47 0.374,0.475 0.368,0.481 0.361,0.486 0.354,0.491 0.347,0.495 0.341,0.5 0.333,0.505 0.326,0.51 0.319,0.514 0.312,0.519 0.305,0.523 0.298,0.527 0.29,0.531 0.283,0.535 0.275,0.539 0.267,0.542 0.261,0.547 0.252,0.55 0.245,0.553 0.299,0.675 0.309,0.67 0.319,0.665 0.33,0.66 0.339,0.655 0.35,0.65 0.359,0.645 0.369,0.639 0.378,0.633 0.389,0.628 0.397,0.621 0.408,0.616 0.416,0.609 0.426,0.603 0.435,0.596 0.443,0.589 0.453,0.583 0.462,0.576 0.47,0.568 0.479,0.562 0.487,0.554 0.496,0.547 0.504,0.539 0.512,0.531 0.52,0.523 0.528,0.516 0.536,0.507 0.543,0.499 0.551,0.491 0.559,0.482 0.566,0.474 0.572,0.465 0.58,0.457 0.587,0.447 0.593,0.439 0.6,0.429 0.607,0.42 0.613,0.411 0.619,0.402 0.625,0.392 0.631,0.383 0.637,0.373 0.642,0.363 0.648,0.353 0.653,0.344 0.658,0.334 0.663,0.323 0.668,0.313 0.673,0.304 0.677,0.292 0.682,0.283 0.686,0.272 0.69,0.262 0.694,0.251 0.697,0.241 0.701,0.229 0.705,0.22 0.708,0.208 0.711,0.198 0.714,0.187 0.716,0.176 0.719,0.165 0.722,0.154 0.724,0.143 28.019,-2.55 20.883,23.506 -11.341,74.98 -2.343,22.329 -6.099,27.944 -3.657,30.993 2.592,59.391 7.138,56.923 10.316,32.717 6.821,37.647 3.402,53.707 16.579,51.295 15.681,36.607 25.643,49.727 13.072,45.385 -0.665,41.933 56.019,27.46 104.865,82.488 41.067,-14.556 19.629,-181.119 15.453,-119.068 8.758,-65.104 -1.747,-28.054 48.905,-24.845 35.149,-22.594 63.19,-40.946 -2.297,-114.431 -10.492,-191.606 47.835,-12.079 90.41,-78.475 99.663,-27.842 157.13,-44.992 30.562,-62.387 25.497,-51.627 -57.015,-123.754 -26.096,-39.106 -107.978,-172.83 -20.341,-76.975 -21.782,-77.41 -22.378,-77.248 -23.368,-77.067 -163.914,304.274 -25.078,7.689 7.763,87.522 3.464,45.291 10.13,102.27 -16.372,79.852 -186.175,-91.87 -144.222,-104.133 -49.515,-60.032 -56.738,-128.643 -70.328,-91.651 -78.477,-116.679 -41.362,-57.259 160.858,-53.937 3.145,-132.112 -127.946,-29.737 -87.417,-3.032 -150.961,29.488 -10.894,141.959 3.65,48.69 -125.08,41.28 -36.164,1.825 -56.774,-19.094 -148.69,-40.127 -103.289,-19.112 -42.4,-8.501 -99.676,37.389 -146.925,-37.651 -115.483,-30.304 -149.337,-35.668 -64.52,-68.433 -85.23,-81.891 -44.938,-94.725 -121.91,9.498 -131.563,-59.775 -10.771,-6.144 -21.122,36.992 z "/>
</g></g></svg>